<svg xmlns="http://www.w3.org/2000/svg" viewBox="0 0 256 256" fill="none">
<rect x="10" y="10" width="236" height="236" rx="68" stroke="#1b2830" stroke-width="18"/><rect x="12" y="12" width="232" height="232" rx="66" stroke="#a6a6d6" stroke-width="6"/><rect x="20" y="20" width="216" height="216" rx="58" stroke="#e5d8ff" stroke-width="2"/>
<path d="M59 31a20 20 0 1 0 20 28A17 17 0 0 1 59 31zM198 184a17 17 0 1 0 17 24 14 14 0 0 1-17-24z" fill="#e5d8ff"/><g fill="#c8b5ee"><path d="M195 34l4 9 9 4-9 4-4 9-4-9-9-4 9-4zM43 184l3 7 7 3-7 3-3 7-3-7-7-3 7-3zM217 80l3 6 6 3-6 3-3 6-3-6-6-3 6-3z"/></g>
<g stroke="#8d86bd" stroke-width="2"><path d="M31 112q18 14 0 28m194-28q-18 14 0 28M77 26q14 16 28 0m46 204q14-16 28 0"/><circle cx="65" cy="82" r="4"/><circle cx="190" cy="110" r="3"/><circle cx="73" cy="178" r="3"/></g><g fill="#e5d8ff"><circle cx="42" cy="92" r="2"/><circle cx="214" cy="164" r="2"/><circle cx="107" cy="229" r="2"/><circle cx="149" cy="27" r="2"/></g><path d="M29 91q9-7 18 0m162 74q9 7 18 0" fill="none" stroke="#c8b5ee" stroke-width="2"/></svg>